<svg width="29" height="23" viewBox="0 0 29 23" fill="none" xmlns="http://www.w3.org/2000/svg">
<path fill-rule="evenodd" clip-rule="evenodd" d="M0.812286 1.91292C0.977864 1.51316 1.25828 1.17148 1.61806 0.931102C1.97785 0.690726 2.40084 0.562451 2.83354 0.5625H17.4169C20.3177 0.5625 23.0997 1.71484 25.1508 3.76602C27.202 5.8172 28.3544 8.59919 28.3544 11.5C28.3544 14.4008 27.202 17.1828 25.1508 19.234C23.0997 21.2852 20.3177 22.4375 17.4169 22.4375H4.29187C3.71171 22.4375 3.15531 22.207 2.74507 21.7968C2.33484 21.3866 2.10437 20.8302 2.10437 20.25C2.10437 19.6698 2.33484 19.1134 2.74507 18.7032C3.15531 18.293 3.71171 18.0625 4.29187 18.0625H17.4169C19.1574 18.0625 20.8266 17.3711 22.0573 16.1404C23.288 14.9097 23.9794 13.2405 23.9794 11.5C23.9794 9.75952 23.288 8.09032 22.0573 6.85961C20.8266 5.62891 19.1574 4.9375 17.4169 4.9375H8.11416L9.48499 6.30833C9.88327 6.72109 10.1035 7.27376 10.0983 7.84732C10.093 8.42087 9.86268 8.96942 9.45691 9.37481C9.05114 9.7802 8.50237 10.01 7.92881 10.0147C7.35525 10.0194 6.80279 9.79867 6.39041 9.4L1.28624 4.29583C0.980556 3.98996 0.772382 3.60035 0.688023 3.17623C0.603665 2.7521 0.646907 2.31248 0.812286 1.91292Z" fill="#211F54"/>
</svg>
