<svg width="52" height="51" viewBox="0 0 52 51" fill="none" xmlns="http://www.w3.org/2000/svg">
<circle cx="26" cy="25.5" r="25.5" fill="white"/>
<path d="M33.5117 38.625C33.1733 38.625 32.8924 38.5132 32.6688 38.2896C32.4451 38.066 32.3333 37.785 32.3333 37.4467V35.5406C31.329 35.2995 30.4409 34.8567 29.669 34.2121C28.897 33.5675 28.3015 32.7863 27.8825 31.8685C27.7999 31.6916 27.7999 31.5049 27.8825 31.3085C27.9651 31.1122 28.0978 30.9756 28.2806 30.8988C28.4527 30.8278 28.6248 30.8351 28.7969 30.9206C28.969 31.0062 29.0963 31.1355 29.179 31.3085C29.6048 32.2001 30.2328 32.9132 31.0631 33.4479C31.8934 33.9826 32.8029 34.25 33.7917 34.25H38.1667C38.5682 34.25 38.9119 34.3924 39.1977 34.6773C39.4826 34.9631 39.625 35.3068 39.625 35.7083V37.4467C39.625 37.785 39.5132 38.066 39.2896 38.2896C39.066 38.5132 38.785 38.625 38.4467 38.625H33.5117ZM35.9792 31.3333C35.3638 31.3333 34.8456 31.1224 34.4246 30.7004C34.0036 30.2785 33.7926 29.7603 33.7917 29.1458C33.7907 28.5314 34.0017 28.0132 34.4246 27.5913C34.8475 27.1693 35.3657 26.9583 35.9792 26.9583C36.5926 26.9583 37.1108 27.1693 37.5338 27.5913C37.9567 28.0132 38.1676 28.5314 38.1667 29.1458C38.1657 29.7603 37.9547 30.2785 37.5338 30.7004C37.1128 31.1224 36.5946 31.3333 35.9792 31.3333ZM32.6673 19.0396C30.5508 19.2 28.7405 20.0337 27.2365 21.5406C25.7324 23.0476 24.8973 24.8593 24.731 26.9758C24.7194 27.1829 24.6426 27.3531 24.5006 27.4863C24.3587 27.6194 24.1837 27.6865 23.9756 27.6875C23.7676 27.6885 23.5897 27.6097 23.4419 27.4513C23.2941 27.2928 23.2348 27.1129 23.264 26.9117C23.4545 24.3985 24.4345 22.2659 26.204 20.514C27.9734 18.762 30.1147 17.7932 32.6279 17.6075C32.8428 17.5783 33.0251 17.6333 33.1748 17.7723C33.3245 17.9113 33.3994 18.0849 33.3994 18.2929C33.3994 18.4942 33.3279 18.6614 33.185 18.7946C33.0421 18.9278 32.8695 19.009 32.6673 19.0381M32.7738 23.4306C31.8142 23.5687 31.0038 23.9673 30.3427 24.6265C29.6806 25.2856 29.2806 26.0945 29.1425 27.0531C29.1007 27.2252 29.003 27.374 28.8494 27.4994C28.6958 27.6248 28.5295 27.6875 28.3506 27.6875C28.1435 27.6875 27.9715 27.616 27.8344 27.4731C27.6973 27.3302 27.6438 27.1727 27.674 27.0006C27.8295 25.656 28.3764 24.519 29.3146 23.5896C30.2518 22.6611 31.3927 22.1191 32.7373 21.9635C32.9278 21.9344 33.0858 21.9888 33.2113 22.1269C33.3367 22.2649 33.3994 22.4356 33.3994 22.6388C33.3994 22.8351 33.3425 23.0058 33.2288 23.1506C33.115 23.2955 32.9633 23.3888 32.7738 23.4306ZM14.5533 24.0417C14.215 24.0417 13.934 23.9299 13.7104 23.7063C13.4868 23.4826 13.375 23.2017 13.375 22.8633V21.125C13.375 20.7235 13.5174 20.3798 13.8023 20.094C14.0881 19.8091 14.4318 19.6667 14.8333 19.6667H19.2083C20.1971 19.6667 21.1066 19.3993 21.9369 18.8646C22.7672 18.3299 23.3952 17.6167 23.821 16.7252C23.9037 16.5531 24.031 16.4102 24.2031 16.2965C24.3752 16.1827 24.5594 16.1589 24.7558 16.225C24.9629 16.2911 25.1199 16.4102 25.2269 16.5823C25.3338 16.7544 25.3513 16.9381 25.2794 17.1335C24.9226 18.1301 24.3247 18.9501 23.4856 19.5938C22.6456 20.2374 21.706 20.6919 20.6667 20.9573V22.8633C20.6667 23.2017 20.5549 23.4826 20.3313 23.7063C20.1076 23.9299 19.8267 24.0417 19.4883 24.0417H14.5533ZM17.0208 16.75C16.4054 16.75 15.8872 16.539 15.4663 16.1171C15.0453 15.6951 14.8343 15.1769 14.8333 14.5625C14.8324 13.9481 15.0433 13.4299 15.4663 13.0079C15.8892 12.586 16.4074 12.375 17.0208 12.375C17.6343 12.375 18.1525 12.586 18.5754 13.0079C18.9983 13.4299 19.2093 13.9481 19.2083 14.5625C19.2074 15.1769 18.9964 15.6951 18.5754 16.1171C18.1544 16.539 17.6363 16.75 17.0208 16.75Z" fill="#211F54"/>
</svg>
