<svg width="52" height="51" viewBox="0 0 52 51" fill="none" xmlns="http://www.w3.org/2000/svg">
<circle cx="26" cy="25.5" r="25.5" fill="white"/>
<path d="M25 16C23.6739 16 22.4021 16.5268 21.4645 17.4645C20.5268 18.4021 20 19.6739 20 21C20 22.3261 20.5268 23.5979 21.4645 24.5355C22.4021 25.4732 23.6739 26 25 26C26.3261 26 27.5979 25.4732 28.5355 24.5355C29.4732 23.5979 30 22.3261 30 21C30 19.6739 29.4732 18.4021 28.5355 17.4645C27.5979 16.5268 26.3261 16 25 16ZM17.5 21C17.5 19.0109 18.2902 17.1032 19.6967 15.6967C21.1032 14.2902 23.0109 13.5 25 13.5C26.9891 13.5 28.8968 14.2902 30.3033 15.6967C31.7098 17.1032 32.5 19.0109 32.5 21C32.5 22.9891 31.7098 24.8968 30.3033 26.3033C28.8968 27.7098 26.9891 28.5 25 28.5C23.0109 28.5 21.1032 27.7098 19.6967 26.3033C18.2902 24.8968 17.5 22.9891 17.5 21ZM20 33.5C19.0054 33.5 18.0516 33.8951 17.3483 34.5983C16.6451 35.3016 16.25 36.2554 16.25 37.25C16.25 37.5815 16.1183 37.8995 15.8839 38.1339C15.6495 38.3683 15.3315 38.5 15 38.5C14.6685 38.5 14.3505 38.3683 14.1161 38.1339C13.8817 37.8995 13.75 37.5815 13.75 37.25C13.75 35.5924 14.4085 34.0027 15.5806 32.8306C16.7527 31.6585 18.3424 31 20 31H30C31.6576 31 33.2473 31.6585 34.4194 32.8306C35.5915 34.0027 36.25 35.5924 36.25 37.25C36.25 37.5815 36.1183 37.8995 35.8839 38.1339C35.6495 38.3683 35.3315 38.5 35 38.5C34.6685 38.5 34.3505 38.3683 34.1161 38.1339C33.8817 37.8995 33.75 37.5815 33.75 37.25C33.75 36.2554 33.3549 35.3016 32.6517 34.5983C31.9484 33.8951 30.9946 33.5 30 33.5H20Z" fill="#211F54"/>
</svg>
