<svg width="52" height="51" viewBox="0 0 52 51" fill="none" xmlns="http://www.w3.org/2000/svg">
<circle cx="26" cy="25.5" r="25.5" fill="white"/>
<path d="M25.6683 11C26.7387 11.0117 27.8048 11.1356 28.8504 11.369C29.0729 11.4186 29.2742 11.5365 29.4264 11.7062C29.5786 11.8759 29.6739 12.0889 29.6992 12.3154L29.9471 14.5423C29.9821 14.8562 30.0903 15.1576 30.263 15.4221C30.4357 15.6866 30.6681 15.9069 30.9415 16.0652C31.2148 16.2235 31.5216 16.3155 31.8369 16.3336C32.1523 16.3518 32.4675 16.2957 32.7573 16.1698L34.799 15.2729C35.0064 15.1816 35.2371 15.1569 35.4592 15.2024C35.6812 15.2478 35.8837 15.3611 36.0385 15.5267C37.5145 17.1034 38.6139 18.994 39.2542 21.0567C39.3211 21.2736 39.3188 21.5059 39.2477 21.7215C39.1767 21.9371 39.0403 22.1252 38.8575 22.2598L37.0477 23.5956C36.7927 23.7825 36.5854 24.0269 36.4424 24.3089C36.2995 24.5909 36.225 24.9026 36.225 25.2188C36.225 25.5349 36.2995 25.8466 36.4424 26.1286C36.5854 26.4106 36.7927 26.655 37.0477 26.8419L38.8604 28.1763C39.0435 28.3109 39.1801 28.4993 39.2512 28.7152C39.3222 28.9311 39.3243 29.1637 39.2571 29.3808C38.6172 31.4433 37.5183 33.334 36.0429 34.9108C35.8883 35.0763 35.6862 35.1897 35.4645 35.2354C35.2427 35.2811 35.0122 35.2569 34.8048 35.166L32.7544 34.2663C32.465 34.1394 32.1499 34.0824 31.8344 34.1C31.519 34.1175 31.2121 34.2091 30.9386 34.3673C30.6651 34.5255 30.4327 34.7458 30.2602 35.0105C30.0877 35.2752 29.9799 35.5768 29.9456 35.8908L29.6977 38.1163C29.6729 38.3401 29.5797 38.5509 29.4306 38.7198C29.2816 38.8887 29.0841 39.0074 28.865 39.0598C26.7528 39.5633 24.5518 39.5633 22.4396 39.0598C22.2202 39.0077 22.0224 38.889 21.8731 38.7201C21.7237 38.5512 21.6303 38.3403 21.6054 38.1163L21.359 35.8938C21.3232 35.5807 21.2144 35.2803 21.0415 35.0169C20.8686 34.7534 20.6363 34.5342 20.3633 34.3768C20.0903 34.2193 19.7842 34.1281 19.4696 34.1105C19.155 34.0928 18.8406 34.1491 18.5517 34.275L16.5012 35.1733C16.2937 35.2645 16.0629 35.2889 15.8408 35.2432C15.6187 35.1975 15.4163 35.0839 15.2617 34.9181C13.786 33.3395 12.6876 31.4467 12.049 29.3823C11.9817 29.1652 11.9838 28.9325 12.0549 28.7166C12.126 28.5008 12.2625 28.3124 12.4456 28.1777L14.2583 26.8419C14.5133 26.655 14.7207 26.4106 14.8636 26.1286C15.0065 25.8466 15.081 25.5349 15.081 25.2188C15.081 24.9026 15.0065 24.5909 14.8636 24.3089C14.7207 24.0269 14.5133 23.7825 14.2583 23.5956L12.4456 22.2627C12.2625 22.128 12.126 21.9397 12.0549 21.7238C11.9838 21.5079 11.9817 21.2752 12.049 21.0581C12.6892 18.9955 13.7886 17.1048 15.2646 15.5281C15.4194 15.3626 15.6219 15.2493 15.844 15.2038C16.066 15.1584 16.2967 15.183 16.5042 15.2744L18.5458 16.1713C18.8361 16.2971 19.1518 16.353 19.4676 16.3347C19.7834 16.3164 20.0905 16.2242 20.3642 16.0657C20.6379 15.9071 20.8706 15.6865 21.0436 15.4217C21.2167 15.1569 21.3252 14.8552 21.3604 14.5408L21.6083 12.3154C21.6334 12.0884 21.7288 11.875 21.8813 11.705C22.0337 11.535 22.2356 11.417 22.4585 11.3675C23.5027 11.1361 24.5726 11.0136 25.6683 11ZM25.6683 13.1875C25.0068 13.1945 24.3467 13.2516 23.6937 13.3581L23.5333 14.7829C23.4604 15.4382 23.2345 16.0671 22.8739 16.619C22.5134 17.171 22.0282 17.6305 21.4574 17.9605C20.8867 18.2906 20.2465 18.482 19.5882 18.5192C18.93 18.5565 18.2722 18.4386 17.6679 18.175L16.3569 17.6004C15.5235 18.6124 14.8601 19.7531 14.3925 20.9779L15.5548 21.834C16.0863 22.224 16.5185 22.7337 16.8165 23.3218C17.1144 23.9099 17.2698 24.5598 17.2699 25.2191C17.27 25.8784 17.115 26.5284 16.8173 27.1166C16.5196 27.7049 16.0876 28.2147 15.5562 28.605L14.391 29.4625C14.8577 30.6904 15.5227 31.8338 16.3569 32.8488L17.6767 32.2698C18.2797 32.0065 18.9361 31.8885 19.593 31.9252C20.25 31.962 20.8891 32.1524 21.459 32.4813C22.0289 32.8101 22.5136 33.2682 22.8742 33.8186C23.2347 34.369 23.461 34.9964 23.5348 35.6502L23.6937 37.0852C24.9917 37.304 26.3173 37.304 27.6137 37.0852L27.7742 35.6502C27.8465 34.9954 28.0718 34.3668 28.4319 33.8152C28.7921 33.2635 29.2769 32.8043 29.8473 32.4747C30.4177 32.1451 31.0576 31.9543 31.7154 31.9176C32.3731 31.881 33.0303 31.9997 33.6337 32.264L34.9521 32.8415C35.7862 31.8286 36.4502 30.6869 36.9179 29.461L35.7542 28.6035C35.2227 28.2135 34.7904 27.7038 34.4925 27.1157C34.1945 26.5276 34.0392 25.8777 34.039 25.2184C34.0389 24.5591 34.194 23.9091 34.4917 23.3209C34.7894 22.7327 35.2214 22.2228 35.7527 21.8325L36.915 20.9765C36.4471 19.7511 35.7832 18.6099 34.9492 17.5975L33.641 18.1706C33.0369 18.4351 32.3791 18.5538 31.7206 18.5171C31.0622 18.4805 30.4216 18.2895 29.8505 17.9597C29.2795 17.6298 28.7941 17.1702 28.4334 16.6182C28.0727 16.0661 27.8469 15.4369 27.7742 14.7815L27.6152 13.3581C26.9719 13.253 26.3201 13.196 25.6683 13.1875ZM25.6508 19.75C27.1012 19.75 28.4922 20.3262 29.5178 21.3518C30.5434 22.3773 31.1196 23.7683 31.1196 25.2188C31.1196 26.6692 30.5434 28.0602 29.5178 29.0857C28.4922 30.1113 27.1012 30.6875 25.6508 30.6875C24.2004 30.6875 22.8094 30.1113 21.7838 29.0857C20.7582 28.0602 20.1821 26.6692 20.1821 25.2188C20.1821 23.7683 20.7582 22.3773 21.7838 21.3518C22.8094 20.3262 24.2004 19.75 25.6508 19.75ZM25.6508 21.9375C24.7806 21.9375 23.946 22.2832 23.3306 22.8986C22.7153 23.5139 22.3696 24.3485 22.3696 25.2188C22.3696 26.089 22.7153 26.9236 23.3306 27.5389C23.946 28.1543 24.7806 28.5 25.6508 28.5C26.5211 28.5 27.3557 28.1543 27.971 27.5389C28.5864 26.9236 28.9321 26.089 28.9321 25.2188C28.9321 24.3485 28.5864 23.5139 27.971 22.8986C27.3557 22.2832 26.5211 21.9375 25.6508 21.9375Z" fill="#211F54"/>
</svg>
